<?xml version="1.0" encoding="UTF-8" standalone="no"?><!DOCTYPE svg PUBLIC "-//W3C//DTD SVG 1.1//EN" "http://www.w3.org/Graphics/SVG/1.1/DTD/svg11.dtd"><svg width="100%" height="100%" viewBox="0 0 1500 1755" version="1.1" xmlns="http://www.w3.org/2000/svg" xmlns:xlink="http://www.w3.org/1999/xlink" xml:space="preserve" xmlns:serif="http://www.serif.com/" style="fill-rule:evenodd;clip-rule:evenodd;stroke-linejoin:round;stroke-miterlimit:2;"><path d="M447.4,632.392c0,75.289 61.027,136.297 136.327,136.297c75.311,0 136.282,-61.008 136.282,-136.297c0,-75.232 -60.97,-136.251 -136.282,-136.251c-75.3,0 -136.327,61.02 -136.327,136.251Z" style="fill:#030404;fill-rule:nonzero;"/><path d="M1500,831.744l0,-254.414l-333.637,0c-2.366,-318.743 -262.374,-577.329 -581.749,-577.329c-320.831,0 -584.615,263.703 -584.615,584.447l0,311.057l267.537,0l0,-311.057c0,-173.259 143.765,-316.98 317.077,-316.98c173.312,0 314.314,140.959 314.314,314.218l0,310.579l0.876,0l0,280.803c0,320.744 261.02,581.672 581.851,581.672l0,-267.455c-173.312,0 -314.314,-140.958 -314.314,-314.218l0,-310.591l-0.864,0l0,-30.731l333.523,0Z" style="fill:#030404;fill-rule:nonzero;"/></svg>