<?xml version="1.0" encoding="UTF-8" standalone="no"?><!DOCTYPE svg PUBLIC "-//W3C//DTD SVG 1.1//EN" "http://www.w3.org/Graphics/SVG/1.1/DTD/svg11.dtd"><svg width="100%" height="100%" viewBox="0 0 550 643" version="1.1" xmlns="http://www.w3.org/2000/svg" xmlns:xlink="http://www.w3.org/1999/xlink" xml:space="preserve" xmlns:serif="http://www.serif.com/" style="fill-rule:evenodd;clip-rule:evenodd;stroke-linejoin:round;stroke-miterlimit:2;"><path d="M163.913,231.6c0,27.592 22.358,49.95 49.946,49.95c27.592,0 49.929,-22.358 49.929,-49.95c0,-27.571 -22.337,-49.933 -49.929,-49.933c-27.588,0 -49.946,22.363 -49.946,49.933Z" style="fill:#1f378c;fill-rule:nonzero;"/><path d="M549.55,304.658l0,-93.237l-122.233,0c-0.867,-116.813 -96.125,-211.579 -213.133,-211.579c-117.542,0 -214.183,96.642 -214.183,214.187l0,113.996l98.017,0l0,-113.996c0,-63.496 52.671,-116.167 116.167,-116.167c63.496,0 115.154,51.658 115.154,115.154l0,113.821l0.321,0l0,102.908c0,117.546 95.629,213.171 213.171,213.171l0,-98.017c-63.496,0 -115.154,-51.658 -115.154,-115.154l0,-113.825l-0.317,0l0,-11.262l122.192,0Z" style="fill:#1f378c;fill-rule:nonzero;"/></svg>