<?xml version="1.0" encoding="UTF-8" standalone="no"?>
<!DOCTYPE svg PUBLIC "-//W3C//DTD SVG 1.1//EN" "http://www.w3.org/Graphics/SVG/1.1/DTD/svg11.dtd">
<svg width="100%" height="100%" viewBox="0 0 1166 895" version="1.1" xmlns="http://www.w3.org/2000/svg" xmlns:xlink="http://www.w3.org/1999/xlink" xml:space="preserve" xmlns:serif="http://www.serif.com/" style="fill-rule:evenodd;clip-rule:evenodd;stroke-linejoin:round;stroke-miterlimit:2;">
    <path d="M447.4,632.392C447.4,707.681 508.427,768.689 583.727,768.689C659.038,768.689 720.009,707.681 720.009,632.392C720.009,557.16 659.039,496.141 583.727,496.141C508.427,496.141 447.4,557.161 447.4,632.392Z" style="fill:rgb(75,139,42);"/>
    <path d="M1166.4,895.5L1166.363,577.33C1163.997,258.587 903.989,0.001 584.614,0.001C263.783,0.001 -0.001,263.704 -0.001,584.448L-0.001,895.505L267.536,895.505L267.536,584.448C267.536,411.189 411.301,267.468 584.613,267.468C757.925,267.468 898.927,408.427 898.927,581.686L898.9,895.5L1166.4,895.5Z" style="fill:rgb(16,30,138);"/>
</svg>
